<?xml version="1.0" encoding="utf-8"?>
<!-- Generator: Adobe Illustrator 19.2.1, SVG Export Plug-In . SVG Version: 6.00 Build 0)  -->
<svg version="1.1" id="Layer_1" xmlns="http://www.w3.org/2000/svg" xmlns:xlink="http://www.w3.org/1999/xlink" x="0px" y="0px"
	 viewBox="0 0 976.9 847.4" style="enable-background:new 0 0 976.9 847.4;" xml:space="preserve">
<style type="text/css">
	.st0{fill:#0000D4;}
</style>
<path class="st0" d="M73.3,377.1c0-20.3-16.4-36.7-36.7-36.7C16.4,340.5,0,356.9,0,377.1v97.3h0c0,8.3,2.8,16.7,8.6,23.6
	c13,15.5,36.1,17.6,51.7,4.5c8.6-7.2,13.1-17.6,13.1-28.1h0V377.1z"/>
<g>
	<path class="st0" d="M206.4,516.8c-2,0-4-0.1-6-0.3c-17.9-1.6-34.2-10.1-45.8-23.9c-8.7-10.3-14-23-15.4-36.3h-0.4l0-7V187.9
		c0-37.2,30.3-67.4,67.4-67.4s67.4,30.3,67.4,67.4v268.5h-0.4c-1.8,17.4-10.2,33.4-23.7,44.7C237.4,511.3,222.2,516.8,206.4,516.8z
		 M152.9,442.4L152.9,442.4l0,7c0,12.5,4.4,24.7,12.5,34.3c9.2,10.9,22.1,17.7,36.3,18.9c14.2,1.2,28.1-3.1,39-12.3
		c12.1-10.2,19.1-25.1,19.1-41l0-7V187.9c0-29.5-24-53.4-53.4-53.4s-53.4,24-53.4,53.4V442.4z"/>
</g>
<g>
	<path class="st0" d="M933.4,518.1c-1.3,0-2.6-0.1-3.9-0.2c-11.6-1-22.1-6.5-29.6-15.4c-5.1-6-8.4-13.3-9.6-21h-0.6l0-7v-97.3
		c0-24.1,19.6-43.7,43.7-43.7c24.1,0,43.7,19.6,43.7,43.7v104.3h-0.6c-1.7,10.3-6.9,19.7-15,26.5
		C953.4,514.6,943.6,518.1,933.4,518.1z M903.6,467.5L903.6,467.5l0,7c0,7,2.5,13.7,6.9,19.1c5.1,6.1,12.2,9.8,20.1,10.5
		c7.9,0.7,15.6-1.7,21.7-6.8c6.7-5.6,10.6-13.9,10.6-22.7l0-7v-90.3c0-16.4-13.3-29.7-29.7-29.7c-16.4,0-29.7,13.3-29.7,29.7V467.5z
		"/>
</g>
<path class="st0" d="M826.6,401.8c0-34.4-27.9-62.3-62.3-62.3c-34.4,0-62.3,27.9-62.3,62.3v255.7h0c0,14.1,4.8,28.3,14.5,40
	c22.1,26.4,61.4,29.8,87.8,7.7c14.7-12.3,22.3-30,22.3-47.7h0V401.8z"/>
<path class="st0" d="M544,169.8c-48.6,0-88,39.4-88,88v268v233.6h0c0,20,6.7,40,20.5,56.5c31.2,37.2,86.7,42.1,124,10.9
	c20.8-17.4,31.4-42.3,31.5-67.4h0V525.8v-268C632,209.2,592.6,169.8,544,169.8z"/>
<g>
	<path class="st0" d="M427.5,691.6c-2.8,0-5.7-0.1-8.5-0.4c-25.3-2.2-48.2-14.2-64.5-33.6c-12.8-15.3-20.5-34.2-21.9-54h-0.3l0-7V95
		c0-52.4,42.6-95,95-95s95,42.6,95,95v508.6H522c-1.9,25.5-13.9,49.2-33.7,65.8C471.1,683.9,449.7,691.6,427.5,691.6z M346.3,589.6
		L346.3,589.6l0,7c0,19,6.7,37.5,18.9,52c13.9,16.6,33.4,26.8,55,28.7c21.6,1.9,42.6-4.7,59.1-18.6c18.4-15.4,28.9-38,29-62.1l0-7
		V95c0-44.7-36.3-81-81-81s-81,36.3-81,81V589.6z"/>
</g>
</svg>
